<svg width="25" height="25" viewBox="0 0 25 25" fill="none" xmlns="http://www.w3.org/2000/svg">
<path d="M2.65576 5.15527C2.65576 4.62484 2.86648 4.11613 3.24155 3.74106C3.61662 3.36599 4.12533 3.15527 4.65576 3.15527H10.6558V21.1553H4.65576C4.12533 21.1553 3.61662 20.9446 3.24155 20.5695C2.86648 20.1944 2.65576 19.6857 2.65576 19.1553V5.15527ZM14.6558 3.15527H20.6558C21.1862 3.15527 21.6949 3.36599 22.07 3.74106C22.445 4.11613 22.6558 4.62484 22.6558 5.15527V10.1553H14.6558V3.15527ZM14.6558 14.1553H22.6558V19.1553C22.6558 19.6857 22.445 20.1944 22.07 20.5695C21.6949 20.9446 21.1862 21.1553 20.6558 21.1553H14.6558V14.1553Z" stroke="black" stroke-linecap="round" stroke-linejoin="round"/>
</svg>
