<svg width="24" height="25" viewBox="0 0 24 25" fill="none" xmlns="http://www.w3.org/2000/svg">
<path fill-rule="evenodd" clip-rule="evenodd" d="M12 2.77344C12.5304 2.77344 13.0391 2.98415 13.4142 3.35922C13.7893 3.7343 14 4.243 14 4.77344C14 5.30387 13.7893 5.81258 13.4142 6.18765C13.0391 6.56272 12.5304 6.77344 12 6.77344C11.4696 6.77344 10.9609 6.56272 10.5858 6.18765C10.2107 5.81258 10 5.30387 10 4.77344C10 4.243 10.2107 3.7343 10.5858 3.35922C10.9609 2.98415 11.4696 2.77344 12 2.77344ZM12 10.7734C12.5304 10.7734 13.0391 10.9842 13.4142 11.3592C13.7893 11.7343 14 12.243 14 12.7734C14 13.3039 13.7893 13.8126 13.4142 14.1877C13.0391 14.5627 12.5304 14.7734 12 14.7734C11.4696 14.7734 10.9609 14.5627 10.5858 14.1877C10.2107 13.8126 10 13.3039 10 12.7734C10 12.243 10.2107 11.7343 10.5858 11.3592C10.9609 10.9842 11.4696 10.7734 12 10.7734V10.7734ZM12 18.7734C12.5304 18.7734 13.0391 18.9842 13.4142 19.3592C13.7893 19.7343 14 20.243 14 20.7734C14 21.3039 13.7893 21.8126 13.4142 22.1877C13.0391 22.5627 12.5304 22.7734 12 22.7734C11.4696 22.7734 10.9609 22.5627 10.5858 22.1877C10.2107 21.8126 10 21.3039 10 20.7734C10 20.243 10.2107 19.7343 10.5858 19.3592C10.9609 18.9842 11.4696 18.7734 12 18.7734Z" fill="black"/>
</svg>
